<svg width="12" height="12" viewBox="0 0 12 12" fill="none" xmlns="http://www.w3.org/2000/svg">
<path fill-rule="evenodd" clip-rule="evenodd" d="M6 0C2.68629 0 0 2.68629 0 6C0 9.31371 2.68629 12 6 12C9.31371 12 12 9.31371 12 6C12 2.68629 9.31371 0 6 0ZM2.8804 4.96946H4.24014V9.05489H2.8804V4.96946ZM4.32969 3.70567C4.32087 3.3051 4.03441 3 3.56926 3C3.1041 3 2.8 3.3051 2.8 3.70567C2.8 4.09795 3.09511 4.41184 3.55161 4.41184H3.5603C4.03441 4.41184 4.32969 4.09795 4.32969 3.70567ZM7.57828 4.87353C8.47305 4.87353 9.14385 5.45756 9.14385 6.71243L9.14379 9.05489H7.78411V6.86918C7.78411 6.32018 7.58735 5.94556 7.09513 5.94556C6.71947 5.94556 6.49572 6.19811 6.39745 6.44204C6.36149 6.52946 6.35267 6.65126 6.35267 6.77336V9.055H4.99277C4.99277 9.055 5.0107 5.35293 4.99277 4.96957H6.35267V5.54824C6.53314 5.27006 6.85636 4.87353 7.57828 4.87353Z" fill="#CA6D18"/>
</svg>
